<svg width="13" height="13" viewBox="0 0 13 13" xmlns="http://www.w3.org/2000/svg" xmlns:xlink="http://www.w3.org/1999/xlink"><title>ic_top_tag2</title><defs><path id="a" d="M0 .764h12.236V13H0"/></defs><g fill="none" fill-rule="evenodd"><mask id="b" fill="#fff"><use xlink:href="#a"/></mask><path d="M6.665.764c-.49 0-.98.187-1.353.56L.437 6.2C.157 6.48 0 6.86 0 7.254l.596 4.785c.024.19.174.34.364.364L5.745 13c.396 0 .776-.157 1.056-.437l4.876-4.875c.747-.747.747-1.96 0-2.706L8.018 1.325C7.644.95 7.155.765 6.665.765m0 2.035L10.2 6.335l-4.628 4.628-3.143-.39-.393-3.145L6.665 2.8" fill="#FFCB00" mask="url(#b)"/></g></svg>